# xmcd
#
# Track frame offsets: 
#        150
#        2900
#        18117
#        56669
#        98606
#        99868
#        143367
#        146575
#        181648
#        183426
#        184386
#        220377
#        230006
#        262300
#        266087
#        307581
#
# Disc length: 4450 seconds
#
# Revision: 2
# Processed by: cddbd v1.5.2PL0 Copyright (c) Steve Scherf et al.
# Submitted via: ExactAudioCopyFreeDBPlugin 1.0
#
DISCID=d5116010
DTITLE=Various Artist - Mark Hummel's Blues Harp Meltdown (Disk 2)
DYEAR=2001
DGENRE=Blues
TTITLE0=Billy Branch Intro - Mark Hummel
TTITLE1=Billy's Boogie - Billy Branch
TTITLE2=Eyesight To The Blind - Billy Branch
TTITLE3=Blues Keep Following Me Around - Billy Branch
TTITLE4=James Harman Intro - Mark Hummel
TTITLE5=Helsinki Laundromat Blues - James Harman
TTITLE6=Harman's Comments - James Harman
TTITLE7=Back Door Rhumba - James Harman
TTITLE8=Rick Estrin Intro - Mark Hummel
TTITLE9=Rick Estrin Comments - Rick Estrin
TTITLE10=Your Gonna Need My Help  - Rick Estrin
TTITLE11=Estrin's Rap  - Rick Estrin
TTITLE12=Work With Me - Rick Estrin
TTITLE13=Kim Wilson Intro - Mark Hummel
TTITLE14=Don't Lose Your Eye - Kim Wilson
TTITLE15=Just A Dream - Kim Wilson
EXTD=YEAR: 2001
EXTT0=
EXTT1=
EXTT2=
EXTT3=
EXTT4=
EXTT5=
EXTT6=
EXTT7=
EXTT8=
EXTT9=
EXTT10=
EXTT11=
EXTT12=
EXTT13=
EXTT14=
EXTT15=
PLAYORDER=
